:version 1.10
:name ASF
:units
  mass 1
  length 1
  angle deg
:documentation
  ASF file generated by Kaydara
:root
  axis xyz
  order  tx ty tz rx ry rz
  position 0 0 0
  orientation 0 0 0
:bonedata
  begin
    id 1
    name RightUpLegDummy
    direction -0.65628 -0.754516 0.00165102
    length 4.76918
    axis 0 0 0 xyz
  end
  begin
    id 2
    name RightUpLeg
    direction -0.145584 -0.923362 0.355256
    length 17.9961
    axis -24.7611 -13.1006 1.78531 xyz
    dof rx ry rz
  end
  begin
    id 3
    name RightLeg
    direction 0.263379 0.172355 -0.949171
    length 13.3386
    axis 89.6202 -21.1929 12.3855 xyz
    dof rx ry rz
  end
  begin
    id 4
    name RightFoot
    direction 0.224283 -0.968777 -0.105675
    length 5.86697
    axis 56.995 -39.6905 17.3365 xyz
    dof rx ry rz
  end
  begin
    id 5
    name RightToes
    direction -0.0806345 -0.9037 0.420506
    length 4.75197
    axis 146.825 -39.7828 17.6019 xyz
    dof rx ry rz
  end
  begin
    id 6
    name SpineDummy
    direction -3.39852e-014 1 9.33296e-014
    length 8.13779
    axis 0 0 0 xyz
  end
  begin
    id 7
    name Spine
    direction -0.156609 0.733703 0.661176
    length 7.14978
    axis 41.2365 5.68757 17.0844 xyz
    dof rx ry rz
  end
  begin
    id 8
    name Spine1
    direction 0 0 0
    length 0
    axis 42.8809 47.8308 -3.36039 xyz
    dof rx ry rz
  end
  begin
    id 9
    name HEadDummy
    direction 0.546431 0.701947 0.456819
    length 3.55512
    axis 42.8809 47.8308 -3.36039 xyz
  end
  begin
    id 10
    name HEad
    direction 0.23444 0.828559 0.508457
    length 7.35827
    axis 51.1864 49.2662 27.4903 xyz
    dof rx ry rz
  end
  begin
    id 11
    name LeftShoulder1Dummy
    direction 0.431183 0.475873 -0.766568
    length 2.49352
    axis 42.8809 47.8308 -3.36039 xyz
  end
  begin
    id 12
    name LeftShoulder1
    direction 0.268187 -0.383402 -0.883786
    length 4.48604
    axis -119.517 0.106469 35.1736 xyz
    dof rx ry rz
  end
  begin
    id 13
    name LeftArm
    direction 0.380567 -0.703221 -0.600541
    length 10.1142
    axis -5.41825 36.2925 7.8293 xyz
    dof rx ry rz
  end
  begin
    id 14
    name LeftForeArm
    direction 0.541071 -0.732356 -0.413396
    length 9.39839
    axis 4.65387 33.7604 7.81644 xyz
    dof rx ry rz
  end
  begin
    id 15
    name LeftHand
    direction 0.847511 -0.389379 -0.360707
    length 3.66142
    axis 7.65593 21.1436 -24.6758 xyz
    dof rx ry rz
  end
  begin
    id 16
    name RightShoulderDummy
    direction -0.692546 0.541855 0.476208
    length 2.49352
    axis 42.8809 47.8308 -3.36039 xyz
  end
  begin
    id 17
    name RightShoulder
    direction -0.870808 -0.316653 0.376065
    length 4.48602
    axis 141.571 51.133 -100.254 xyz
    dof rx ry rz
  end
  begin
    id 18
    name RightArm
    direction 0.366897 -0.87275 0.322015
    length 10.1142
    axis 92.3258 71.2036 138.917 xyz
    dof rx ry rz
  end
  begin
    id 19
    name RightForeArm
    direction 0.702487 -0.694568 0.155197
    length 9.39835
    axis 153.863 41.5092 -176.604 xyz
    dof rx ry rz
  end
  begin
    id 20
    name RightHand
    direction 0.79502 -0.601276 0.0800636
    length 3.66142
    axis 154.247 4.59222 142.9 xyz
    dof rx ry rz
  end
  begin
    id 21
    name LeftUpLegDummy
    direction 0.65628 -0.754516 0.00165102
    length 4.76919
    axis 0 0 0 xyz
  end
  begin
    id 22
    name LeftUpLeg
    direction -0.1277 -0.689368 0.713067
    length 17.9961
    axis -48.3385 -17.8675 0.791927 xyz
    dof rx ry rz
  end
  begin
    id 23
    name LeftLeg
    direction 0.109849 -0.991246 -0.0732378
    length 13.3386
    axis -2.05791 -7.30784 1.72042 xyz
    dof rx ry rz
  end
  begin
    id 24
    name LeftFoot
    direction 0.0448355 -0.272614 0.961078
    length 5.86697
    axis -18.7733 -7.89606 10.2113 xyz
    dof rx ry rz
  end
  begin
    id 25
    name LeftToes
    direction -0.18506 0.293668 0.937823
    length 4.75197
    axis 71.2267 -7.89606 10.2113 xyz
    dof rx ry rz
  end
:hierarchy
  begin
    root RightUpLegDummy SpineDummy LeftUpLegDummy
    RightUpLegDummy RightUpLeg
    RightUpLeg RightLeg
    RightLeg RightFoot
    RightFoot RightToes
    SpineDummy Spine
    Spine Spine1
    Spine1 HEadDummy LeftShoulder1Dummy RightShoulderDummy
    HEadDummy HEad
    LeftShoulder1Dummy LeftShoulder1
    LeftShoulder1 LeftArm
    LeftArm LeftForeArm
    LeftForeArm LeftHand
    RightShoulderDummy RightShoulder
    RightShoulder RightArm
    RightArm RightForeArm
    RightForeArm RightHand
    LeftUpLegDummy LeftUpLeg
    LeftUpLeg LeftLeg
    LeftLeg LeftFoot
    LeftFoot LeftToes
  end

:SAMPLES-PER-SECOND 30
:FULLY-SPECIFIED
:DEGREES
276
root  -0.0253231 38.5523 -61.6201 172.241 4.26806 -174.815
RightUpLeg  28.6177 7.18421 7.9122
RightLeg  -100.191 -9.67282 2.39688
RightFoot  21.9166 3.66994 -14.4282
RightToes  -1.27222e-014 -6.36111e-015 6.36111e-015
Spine  -37.5947 -6.37622 -4.66169
Spine1  6.03094 -8.65448 46.6848
HEad  -2.4192 -15.0042 -15.1105
LeftShoulder1  6.36111e-015 -1.33558e-015 6.49777e-015
LeftArm  34.64 19.1059 -24.0701
LeftForeArm  -6.96153 -32.3525 2.11582
LeftHand  -1.43389 -2.05239 -10.1368
RightShoulder  -4.77083e-015 -6.36111e-015 -3.18055e-015
RightArm  54.6154 -26.9439 -18.9965
RightForeArm  -13.0579 -0.0519436 -11.7139
RightHand  -0.26718 4.00596 -4.52446
LeftUpLeg  34.3852 10.3241 26.1717
LeftLeg  -38.809 -16.082 4.65869
LeftFoot  10.0229 5.75053 -14.6112
LeftToes  9.54166e-015 4.2066e-011 -8.07781e-011
277
root  -0.335529 38.117 -62.4323 171.729 1.86351 -173.515
RightUpLeg  29.9497 4.49892 6.99505
RightLeg  -98.1692 -10.5095 1.86875
RightFoot  17.9163 3.45625 -13.2795
RightToes  -1.27222e-014 -6.36111e-015 6.36111e-015
Spine  -35.8673 -6.70419 -3.61031
Spine1  5.85889 -9.59214 45.1046
HEad  -5.01523 -16.1262 -15.7117
LeftShoulder1  6.36111e-015 -1.33558e-015 6.49777e-015
LeftArm  33.164 17.705 -21.4217
LeftForeArm  -6.89209 -31.593 1.88319
LeftHand  -1.47704 -2.16152 -10.3239
RightShoulder  -4.77083e-015 -6.36111e-015 -3.18055e-015
RightArm  59.3885 -26.4419 -26.3643
RightForeArm  -13.771 -0.637042 -11.6941
RightHand  -0.272753 4.11593 -4.7183
LeftUpLeg  32.0654 10.101 25.4568
LeftLeg  -38.1548 -17.5375 6.50986
LeftFoot  13.2833 6.52597 -15.3086
LeftToes  9.54166e-015 4.2066e-011 -8.07781e-011
278
root  -0.720124 37.5319 -63.1444 170.85 -0.865995 -173.366
RightUpLeg  28.9652 3.15715 5.35326
RightLeg  -90.6751 -12.3436 2.02678
RightFoot  13.1743 2.12642 -9.83993
RightToes  -1.27222e-014 -6.36111e-015 6.36111e-015
Spine  -32.8687 -8.62042 -4.71547
Spine1  6.17272 -10.6592 45.7864
HEad  -8.35823 -16.9495 -16.4839
LeftShoulder1  6.36111e-015 -1.33558e-015 6.49777e-015
LeftArm  29.499 15.1323 -21.6214
LeftForeArm  -5.1524 -27.7653 0.50662
LeftHand  -1.22349 -1.3589 -10.0321
RightShoulder  -4.77083e-015 -6.36111e-015 -3.18055e-015
RightArm  62.9899 -24.1673 -33.3353
RightForeArm  -15.4506 -3.30924 -11.004
RightHand  -0.190853 4.15619 -5.68682
LeftUpLeg  27.8868 7.9047 21.5426
LeftLeg  -28.8785 -15.9005 4.0574
LeftFoot  19.3554 6.63148 -13.5877
LeftToes  9.54166e-015 4.2066e-011 -8.07781e-011
279
root  -1.11947 36.8464 -63.859 170.329 -2.64344 -174.978
RightUpLeg  24.7573 5.26017 3.58539
RightLeg  -77.67 -14.6965 3.55376
RightFoot  12.3153 0.308954 -6.37862
RightToes  -1.27222e-014 -6.36111e-015 6.36111e-015
Spine  -29.5103 -11.458 -8.60834
Spine1  6.90166 -11.0587 48.3258
HEad  -11.4835 -17.5617 -16.133
LeftShoulder1  6.36111e-015 -1.33558e-015 6.49777e-015
LeftArm  25.1168 12.5426 -22.4632
LeftForeArm  -3.59584 -22.1579 -0.806988
LeftHand  -0.973594 -0.480607 -10.1412
RightShoulder  -4.77083e-015 -6.36111e-015 -3.18055e-015
RightArm  64.3736 -21.4931 -39.8468
RightForeArm  -16.9206 -7.01554 -9.72482
RightHand  -0.384188 5.09367 -5.91453
LeftUpLeg  24.1933 5.90514 17.256
LeftLeg  -18.5609 -14.2365 0.244948
LeftFoot  20.9519 6.19695 -12.2907
LeftToes  9.54166e-015 4.2066e-011 -8.07781e-011
280
root  -1.48057 36.2193 -64.5205 170.297 -2.45991 -178.412
RightUpLeg  17.5617 9.20036 0.245008
RightLeg  -62.0604 -16.8452 2.72413
RightFoot  18.0767 -0.520788 -7.03701
RightToes  -1.27222e-014 -6.36111e-015 6.36111e-015
Spine  -25.8472 -14.9399 -14.3487
Spine1  8.14221 -11.3359 49.2252
HEad  -13.532 -17.1748 -14.8114
LeftShoulder1  6.36111e-015 -1.33558e-015 6.49777e-015
LeftArm  21.6468 10.5658 -21.0628
LeftForeArm  -2.81561 -17.6026 -2.11661
LeftHand  -1.01285 -0.482401 -10.6561
RightShoulder  -4.77083e-015 -6.36111e-015 -3.18055e-015
RightArm  63.5989 -19.8638 -46.0884
RightForeArm  -17.7881 -8.99407 -9.0422
RightHand  -0.873968 6.8066 -4.53308
LeftUpLeg  21.6298 11.1887 16.702
LeftLeg  -10.18 -16.4522 -0.503031
LeftFoot  16.0938 5.33741 -11.7756
LeftToes  9.54166e-015 4.2066e-011 -8.07781e-011
281
root  -1.8599 35.6811 -65.1237 169.864 -1.35842 178.077
RightUpLeg  10.0059 13.0544 -3.52658
RightLeg  -47.9922 -17.5494 0.904231
RightFoot  23.8601 0.841801 -10.7649
RightToes  -1.27222e-014 -6.36111e-015 6.36111e-015
Spine  -22.6191 -18.0296 -18.6889
Spine1  9.70953 -12.2083 47.2032
HEad  -14.5501 -15.5335 -13.9315
LeftShoulder1  6.36111e-015 -1.33558e-015 6.49777e-015
LeftArm  20.6677 6.54569 -19.1209
LeftForeArm  -3.58025 -13.2818 -3.17007
LeftHand  -1.15792 -0.970735 -10.7195
RightShoulder  -4.77083e-015 -6.36111e-015 -3.18055e-015
RightArm  61.8523 -19.5184 -50.7782
RightForeArm  -19.017 -8.17746 -9.64473
RightHand  -1.23741 8.03448 -2.883
LeftUpLeg  21.04 17.1861 17.1895
LeftLeg  -3.99061 -17.8813 -1.48335
LeftFoot  10.6176 4.60341 -11.5546
LeftToes  9.54166e-015 4.2066e-011 -8.07781e-011
282
root  -2.30324 35.398 -65.7432 169.026 -1.18335 176.386
RightUpLeg  4.78854 14.3667 -5.91373
RightLeg  -38.3264 -18.9498 0.573754
RightFoot  22.8903 2.69936 -13.1997
RightToes  -1.27222e-014 -6.36111e-015 6.36111e-015
Spine  -21.445 -19.7724 -19.2126
Spine1  11.2587 -13.5522 44.3416
HEad  -15.1584 -13.8027 -14.1608
LeftShoulder1  6.36111e-015 -1.33558e-015 6.49777e-015
LeftArm  21.0911 0.219229 -18.5417
LeftForeArm  -4.70532 -10.0106 -4.33746
LeftHand  -1.01975 -0.684196 -9.95837
RightShoulder  -4.77083e-015 -6.36111e-015 -3.18055e-015
RightArm  60.2773 -19.8774 -52.84
RightForeArm  -21.2354 -6.165 -11.0571
RightHand  -1.28652 8.18759 -2.56406
LeftUpLeg  21.8939 20.5343 17.3704
LeftLeg  -0.512553 -18.3942 -2.16273
LeftFoot  8.7029 4.0674 -10.7172
LeftToes  9.54166e-015 4.2066e-011 -8.07781e-011
283
root  -2.70798 35.483 -66.4124 168.599 -1.93222 176.402
RightUpLeg  1.88915 13.4113 -6.247
RightLeg  -33.402 -21.2642 1.09377
RightFoot  18.5288 3.18818 -12.9892
RightToes  -1.27222e-014 -6.36111e-015 6.36111e-015
Spine  -22.4784 -20.42 -17.6006
Spine1  12.4831 -14.7361 42.7511
HEad  -15.1078 -13.2738 -14.852
LeftShoulder1  6.36111e-015 -1.33558e-015 6.49777e-015
LeftArm  21.6818 -5.69295 -20.2241
LeftForeArm  -5.54901 -9.42038 -4.72981
LeftHand  -0.589209 0.537534 -9.12394
RightShoulder  -4.77083e-015 -6.36111e-015 -3.18055e-015
RightArm  59.421 -20.6457 -53.0537
RightForeArm  -23.6718 -4.37153 -12.5195
RightHand  -1.13909 7.67051 -3.2804
LeftUpLeg  22.9688 20.8022 16.4797
LeftLeg  0.508616 -18.2097 -2.34212
LeftFoot  8.22808 3.50721 -9.36314
LeftToes  9.54166e-015 4.2066e-011 -8.07781e-011
284
root  -2.97438 35.8601 -67.1055 168.683 -1.95792 176.678
RightUpLeg  0.0184469 12.386 -4.97224
RightLeg  -32.46 -23.0302 1.76708
RightFoot  17.143 3.04472 -12.4405
RightToes  -1.27222e-014 -6.36111e-015 6.36111e-015
Spine  -23.984 -20.6967 -16.9458
Spine1  12.4882 -15.1831 42.4694
HEad  -13.3319 -13.6612 -15.301
LeftShoulder1  6.36111e-015 -1.33558e-015 6.49777e-015
LeftArm  22.4999 -9.01808 -23.7109
LeftForeArm  -6.578 -11.2061 -3.42677
LeftHand  -0.364907 1.21985 -8.92325
RightShoulder  -4.77083e-015 -6.36111e-015 -3.18055e-015
RightArm  59.5637 -21.9081 -51.9
RightForeArm  -25.5533 -3.05842 -13.6859
RightHand  -0.965323 7.00436 -3.81628
LeftUpLeg  24.5979 20.365 15.7257
LeftLeg  -0.541167 -17.3802 -2.05193
LeftFoot  6.99306 3.05903 -8.43632
LeftToes  9.54166e-015 4.2066e-011 -8.07781e-011
285
root  -3.15337 36.347 -67.783 168.738 -0.441067 176.421
RightUpLeg  -0.806725 12.5629 -2.91543
RightLeg  -34.4014 -23.8842 2.59796
RightFoot  17.7776 3.57738 -13.4433
RightToes  -1.27222e-014 -6.36111e-015 6.36111e-015
Spine  -24.6417 -20.8827 -17.6792
Spine1  10.7764 -14.9382 42.4334
HEad  -9.67134 -13.6955 -15.4798
LeftShoulder1  6.36111e-015 -1.33558e-015 6.49777e-015
LeftArm  23.019 -9.39027 -26.9987
LeftForeArm  -7.68627 -14.3947 -1.5684
LeftHand  -0.575088 0.581537 -9.11416
RightShoulder  -4.77083e-015 -6.36111e-015 -3.18055e-015
RightArm  60.3281 -23.6127 -48.748
RightForeArm  -26.3236 -2.00112 -14.5089
RightHand  -0.847646 6.49999 -3.97069
LeftUpLeg  27.3914 20.8042 15.9336
LeftLeg  -3.18887 -15.9085 -1.49398
LeftFoot  6.21916 2.93158 -8.2515
LeftToes  9.54166e-015 4.2066e-011 -8.07781e-011
286
root  -3.33646 36.7992 -68.4377 168.575 1.43879 176.148
RightUpLeg  -0.0584875 12.9368 -0.888404
RightLeg  -38.9545 -23.6993 3.57313
RightFoot  16.49 4.05555 -13.947
RightToes  -1.27222e-014 -6.36111e-015 6.36111e-015
Spine  -25.0102 -20.9566 -18.1442
Spine1  8.2357 -14.7308 42.2254
HEad  -5.25411 -12.999 -15.5201
LeftShoulder1  6.36111e-015 -1.33558e-015 6.49777e-015
LeftArm  22.5553 -8.36625 -28.9922
LeftForeArm  -8.36548 -18.196 -0.813675
LeftHand  -0.861511 -0.319725 -9.29729
RightShoulder  -4.77083e-015 -6.36111e-015 -3.18055e-015
RightArm  60.7492 -25.6123 -43.5031
RightForeArm  -25.5224 -1.28674 -14.7679
RightHand  -0.785315 6.26943 -4.15101
LeftUpLeg  30.5408 21.2942 16.2761
LeftLeg  -6.23296 -14.3476 -1.03311
LeftFoot  6.59617 2.94999 -8.22149
LeftToes  9.54166e-015 4.2066e-011 -8.07781e-011
287
root  -3.53949 37.1807 -69.0858 168.625 2.14042 176.543
RightUpLeg  1.61052 11.4874 0.380079
RightLeg  -47.2506 -22.633 4.9927
RightFoot  15.7898 3.3967 -12.6994
RightToes  -1.27222e-014 -6.36111e-015 6.36111e-015
Spine  -26.3241 -21.0511 -17.4529
Spine1  5.85419 -14.9989 42.7915
HEad  -1.18574 -12.4045 -15.4803
LeftShoulder1  6.36111e-015 -1.33558e-015 6.49777e-015
LeftArm  22.5761 -8.461 -31.7666
LeftForeArm  -9.5332 -21.1133 -0.153002
LeftHand  -0.898639 -0.433596 -9.33539
RightShoulder  -4.77083e-015 -6.36111e-015 -3.18055e-015
RightArm  60.5118 -27.8429 -37.5861
RightForeArm  -23.5611 -1.24937 -14.2969
RightHand  -0.773363 6.21752 -4.16232
LeftUpLeg  32.7881 20.8725 16.0389
LeftLeg  -8.57789 -13.4771 -0.793268
LeftFoot  6.67605 2.83117 -7.87548
LeftToes  9.54166e-015 4.2066e-011 -8.07781e-011
